<?xml version="1.0" standalone="no"?>
<!DOCTYPE svg PUBLIC "-//W3C//DTD SVG 20010904//EN"
 "http://www.w3.org/TR/2001/REC-SVG-20010904/DTD/svg10.dtd">
<svg version="1.0" xmlns="http://www.w3.org/2000/svg"
 width="1000.000000pt" height="750.000000pt" viewBox="0 0 1000.000000 750.000000"
 preserveAspectRatio="xMidYMid meet">

<g transform="translate(0.000000,750.000000) scale(0.100000,-0.100000)"
fill="#000000" stroke="none">
<path d="M0 3750 l0 -3750 5000 0 5000 0 0 3750 0 3750 -5000 0 -5000 0 0
-3750z m4086 1897 l471 -1018 204 -575 204 -575 39 3 39 3 203 570 202 570
468 1022 469 1023 523 0 522 0 0 -2920 0 -2920 -430 0 -430 0 0 1793 0 1792
30 500 c16 275 30 501 30 503 0 1 -22 2 -49 2 l-49 0 -26 -62 c-15 -35 -105
-254 -200 -487 -153 -373 -241 -565 -742 -1612 -313 -653 -572 -1184 -576
-1180 -4 4 -260 537 -568 1185 -472 992 -592 1256 -762 1663 l-202 483 -48 0
c-26 0 -48 -3 -48 -7 0 -5 14 -228 30 -498 l30 -490 0 -1792 0 -1793 -430 0
-430 0 0 2920 0 2920 527 -2 527 -3 472 -1018z"/>
</g>
</svg>
